<svg xmlns="http://www.w3.org/2000/svg" width="64" height="64" fill="none"><path fill="#fff" d="M12.832 38H8.476v-3.042h4.176c.708 0 1.254-.072 1.638-.216.384-.144.648-.432.792-.864.156-.432.234-1.068.234-1.908 0-.852-.078-1.488-.234-1.908-.144-.432-.408-.72-.792-.864-.384-.144-.93-.216-1.638-.216H8.476V25.94h4.356c1.32 0 2.436.24 3.348.72a4.688 4.688 0 0 1 2.07 2.052c.48.9.72 1.986.72 3.258s-.24 2.358-.72 3.258a4.79 4.79 0 0 1-2.07 2.07c-.912.468-2.028.702-3.348.702Zm-1.818 0H7.63V25.94h3.384V38Zm12.182 0h-3.384V25.94h6.066c1.02 0 1.86.144 2.52.432.66.276 1.152.69 1.476 1.242.324.552.486 1.23.486 2.034 0 .636-.09 1.188-.27 1.656-.18.468-.474.846-.882 1.134-.396.276-.936.456-1.62.54v.162c.612.156 1.068.42 1.368.792.312.372.582.816.81 1.332L31.026 38h-3.942l-1.188-2.502a5.034 5.034 0 0 0-.468-.81.98.98 0 0 0-.522-.414c-.204-.084-.498-.126-.882-.126h-.828V38Zm0-9.018v2.358h2.556c.48 0 .804-.084.972-.252.168-.168.252-.492.252-.972 0-.444-.084-.744-.252-.9-.168-.156-.492-.234-.972-.234h-2.556ZM34.797 38h-3.384V25.94h3.384V38Zm7.033-3.186h-4.572V31.79h4.446c.576 0 .966-.084 1.17-.252.204-.18.306-.564.306-1.152 0-.6-.102-.984-.306-1.152-.204-.168-.594-.252-1.17-.252h-4.446V25.94h4.572c.96 0 1.794.18 2.502.54a3.743 3.743 0 0 1 1.638 1.53c.396.66.594 1.452.594 2.376 0 .948-.198 1.752-.594 2.412a3.773 3.773 0 0 1-1.638 1.512c-.708.336-1.542.504-2.502.504ZM39.508 38h-3.384V25.94h3.384V38Zm13.002-8.442h-1.367V25.94h1.907l.649 2.07h.053l.63-2.07h1.909v3.618h-1.368v-.936l.09-.99h-.072l-.433 1.71h-1.602l-.45-1.71h-.053l.108 1.008v.918Zm-3.096 0h-1.511v-2.214H46.66V25.94h3.995v1.404h-1.242v2.214Z"/></svg>